<?xml version="1.0" standalone="no"?>
<!DOCTYPE svg PUBLIC "-//W3C//DTD SVG 20010904//EN"
 "http://www.w3.org/TR/2001/REC-SVG-20010904/DTD/svg10.dtd">
<svg version="1.0" xmlns="http://www.w3.org/2000/svg"
 width="903.000000pt" height="787.000000pt" viewBox="0 0 903.000000 787.000000"
 preserveAspectRatio="xMidYMid meet">

<g transform="translate(0.000000,787.000000) scale(0.100000,-0.100000)"
fill="#000000" stroke="none">
<path d="M0 3935 l0 -3935 4515 0 4515 0 0 3935 0 3935 -4515 0 -4515 0 0
-3935z m4770 2664 c146 -247 271 -462 278 -477 13 -26 10 -34 -64 -160 -43
-73 -81 -132 -84 -132 -3 0 -94 154 -204 341 -109 187 -199 339 -201 337 -17
-21 -448 -764 -448 -772 0 -6 275 -478 611 -1049 337 -571 612 -1042 612
-1047 0 -6 -513 -10 -1395 -10 l-1396 0 12 23 c24 45 701 1202 709 1210 4 5
44 -53 89 -128 l81 -137 -200 -339 c-110 -187 -200 -342 -200 -344 0 -3 196
-5 435 -5 l435 0 0 60 c0 43 -4 60 -13 60 -51 0 -243 24 -292 37 -70 17 -155
52 -155 63 0 4 21 17 48 28 l47 20 -47 1 c-27 1 -48 5 -48 10 0 5 24 23 53 40
52 30 52 31 20 31 -18 0 -33 3 -33 8 0 4 37 27 83 50 l82 43 -67 -6 c-38 -3
-68 -2 -68 2 0 4 43 33 94 63 100 58 104 70 24 70 -58 0 -62 15 -10 35 20 9
60 26 87 39 l50 24 -62 -6 c-35 -2 -63 -1 -63 4 0 5 33 30 73 56 71 47 71 48
38 48 l-34 0 23 25 23 25 -34 0 -34 1 45 25 45 25 -67 -5 c-38 -3 -68 -2 -68
3 0 4 37 25 83 47 l82 39 -50 5 -50 5 75 42 c71 40 73 43 41 43 l-34 0 46 49
c50 54 76 99 101 181 10 30 20 62 23 70 2 8 15 -17 27 -56 30 -94 72 -168 117
-209 l38 -34 -31 -3 c-30 -3 -29 -4 32 -38 l63 -35 -37 -3 c-20 -2 -36 -8 -36
-13 0 -6 34 -26 75 -46 41 -19 75 -39 75 -43 0 -4 -30 -6 -67 -3 l-68 4 45
-25 45 -25 -35 -1 -35 -1 29 -24 29 -23 -34 -4 -34 -3 70 -45 70 -45 -60 -5
-60 -6 50 -23 c28 -12 67 -30 88 -38 20 -8 37 -19 37 -24 0 -4 -30 -9 -67 -11
l-68 -3 98 -60 c53 -32 97 -63 97 -67 0 -4 -30 -5 -67 -2 l-68 5 90 -48 90
-47 -38 -6 -37 -5 55 -29 c30 -15 52 -32 49 -37 -3 -5 -24 -9 -47 -10 l-42 -1
50 -22 50 -23 -50 -25 c-68 -34 -158 -55 -290 -68 -60 -5 -113 -10 -117 -10
-5 0 -8 -27 -8 -60 l0 -60 410 0 411 0 -12 22 c-7 13 -248 423 -536 911 -287
489 -523 891 -523 893 0 10 772 1314 778 1314 4 -1 126 -203 272 -451z m1049
-1782 c375 -637 685 -1165 688 -1173 4 -12 -72 -14 -558 -12 l-563 3 -78 130
c-42 72 -77 133 -78 137 0 4 179 9 399 10 l398 3 -236 401 c-130 221 -239 400
-243 398 -3 -2 -9 -18 -13 -34 -8 -37 -14 -37 -50 0 -16 17 -32 30 -35 30 -4
0 -12 -25 -19 -56 -7 -30 -15 -54 -17 -51 -3 2 -33 82 -68 176 l-63 172 -32
-78 c-18 -43 -36 -82 -41 -86 -4 -5 -29 58 -55 140 -26 81 -50 152 -54 156 -4
4 -20 -18 -34 -50 -14 -32 -42 -93 -62 -136 l-36 -78 -44 35 c-24 20 -48 36
-55 36 -6 0 -42 -25 -80 -55 -38 -30 -71 -55 -74 -55 -3 0 -42 61 -86 136
l-81 137 152 256 c84 141 210 354 281 475 107 180 132 216 143 205 7 -8 319
-535 694 -1172z m-2890 -1448 c24 -5 65 -21 92 -34 47 -25 119 -81 119 -94 0
-4 -27 -30 -60 -59 l-59 -53 -43 31 c-90 66 -209 75 -308 25 -183 -93 -172
-383 18 -467 55 -25 172 -27 226 -4 l36 15 0 120 0 121 90 0 90 0 0 -169 0
-170 -52 -29 c-97 -54 -151 -67 -283 -67 -101 0 -129 4 -176 23 -124 50 -216
141 -256 255 -27 77 -24 223 6 300 81 207 311 312 560 256z m901 -27 c74 -29
125 -73 158 -136 23 -44 27 -63 27 -136 0 -77 -3 -90 -31 -140 -20 -35 -49
-68 -81 -90 l-50 -35 88 -125 c49 -69 88 -129 89 -133 0 -4 -46 -6 -102 -5
l-102 3 -79 113 -79 112 -83 0 -84 0 -3 -112 -3 -113 -97 -3 -98 -3 0 416 0
417 238 -4 c215 -3 242 -6 292 -26z m960 -52 l0 -80 -215 0 -215 0 0 -85 0
-85 190 0 190 0 0 -75 0 -75 -190 0 -190 0 0 -95 0 -95 225 0 225 0 0 -80 0
-80 -320 0 -320 0 0 415 0 415 310 0 310 0 0 -80z m790 0 l0 -80 -215 0 -215
0 0 -85 0 -85 190 0 190 0 0 -75 0 -75 -190 0 -190 0 0 -95 0 -95 225 0 225 0
0 -80 0 -80 -320 0 -320 0 0 415 0 415 310 0 310 0 0 -80z m527 -162 l198
-243 3 243 2 242 100 0 100 0 0 -415 0 -416 -82 3 -83 3 -200 244 -200 244 -3
-247 -2 -246 -95 0 -95 0 0 415 0 415 79 0 80 0 198 -242z m-2363 -812 c60
-25 119 -78 151 -137 23 -44 30 -69 33 -135 6 -108 -14 -167 -79 -238 -70 -77
-128 -101 -249 -101 -84 0 -102 3 -152 28 -197 97 -239 368 -81 518 21 20 57
47 81 58 80 40 210 43 296 7z m1936 -6 c45 -23 44 -21 29 -54 l-12 -25 -41 21
c-50 26 -167 36 -219 19 -71 -24 -99 -100 -57 -154 20 -25 54 -39 217 -86 91
-27 139 -69 148 -133 22 -150 -159 -240 -356 -178 -86 27 -114 49 -105 84 8
31 19 33 53 6 34 -26 115 -50 172 -50 105 0 166 41 166 111 0 58 -25 76 -161
116 -66 19 -132 42 -149 52 -108 62 -97 218 20 279 67 34 220 30 295 -8z
m-2480 0 l0 -30 -185 0 -185 0 0 -125 0 -125 165 0 165 0 0 -30 0 -30 -165 0
-165 0 0 -136 0 -135 -32 3 -33 3 -3 318 -2 317 220 0 220 0 0 -30z m1263 -3
c42 -21 63 -39 82 -71 31 -53 41 -118 25 -174 -13 -50 -71 -119 -107 -128 -13
-4 -22 -12 -20 -18 3 -6 34 -54 71 -105 36 -52 66 -98 66 -102 0 -5 -15 -9
-33 -9 -31 0 -39 8 -107 106 -61 86 -78 104 -95 100 -11 -3 -59 -6 -107 -6
l-88 0 0 -100 0 -100 -35 0 -35 0 0 321 0 321 163 -4 c154 -3 165 -4 220 -31z
m707 3 l0 -30 -185 0 -185 0 0 -110 0 -110 165 0 165 0 0 -30 0 -30 -165 0
-165 0 0 -115 0 -115 190 0 190 0 0 -35 0 -35 -222 2 -223 3 -3 318 -2 317
220 0 220 0 0 -30z m1120 0 l0 -30 -110 0 -110 0 0 -291 0 -290 -32 3 -33 3
-3 288 -2 287 -110 0 -110 0 0 30 0 30 255 0 255 0 0 -30z m110 -397 c14 -9
27 -18 29 -20 2 -1 -4 -12 -13 -22 -16 -18 -19 -18 -45 -4 -30 18 -70 12 -95
-13 -21 -20 -20 -83 1 -106 19 -21 74 -24 103 -6 16 10 23 10 36 -4 22 -22 7
-42 -42 -58 -70 -24 -151 16 -174 84 -18 56 8 123 59 151 36 20 111 19 141 -2z
m281 -20 c55 -54 49 -150 -11 -193 -35 -25 -96 -33 -140 -17 -77 27 -106 135
-53 197 35 42 57 50 121 47 44 -3 59 -9 83 -34z m-2777 -743 c57 -56 43 -177
-26 -220 -25 -16 -45 -20 -85 -17 -62 4 -67 8 -58 37 6 19 12 21 41 16 46 -9
93 17 94 51 0 8 -7 8 -28 1 -79 -30 -151 49 -111 123 28 54 123 58 173 9z
m221 26 c81 -34 96 -175 25 -238 -63 -58 -160 -22 -180 66 -16 73 12 149 63
171 41 18 50 18 92 1z m446 -2 c5 -2 3 -15 -2 -28 -10 -21 -16 -23 -50 -19
-29 4 -45 1 -59 -12 -33 -30 -25 -40 30 -37 42 3 53 0 75 -22 35 -35 33 -79
-4 -117 -41 -41 -107 -41 -152 -1 -27 24 -33 37 -37 85 -7 86 26 142 93 160
21 6 92 0 106 -9z m205 -15 c40 -37 33 -81 -22 -139 l-47 -50 52 0 c50 0 51
-1 51 -30 l0 -30 -100 0 c-96 0 -100 1 -100 22 0 13 26 48 66 90 36 37 64 73
62 80 -9 25 -36 33 -74 19 -31 -11 -38 -11 -52 2 -13 13 -13 19 -2 32 32 39
127 41 166 4z m465 8 c25 -15 35 -53 22 -87 -7 -20 -7 -32 3 -45 15 -20 18
-53 8 -80 -23 -58 -185 -58 -208 0 -11 29 -7 72 8 84 12 10 12 16 0 40 -39 79
80 142 167 88z m-2249 -63 l63 -77 3 77 3 76 29 0 30 0 0 -135 0 -135 -24 0
c-19 0 -41 19 -88 77 l-63 78 -3 -78 -3 -78 -32 3 -32 3 -3 133 -3 132 30 0
c25 0 40 -13 93 -76z m256 -56 l-3 -133 -32 -3 -33 -3 0 135 0 136 35 0 36 0
-3 -132z m262 107 c0 -23 -4 -25 -46 -25 l-45 0 2 -107 2 -108 -32 -3 -31 -3
0 110 0 111 -45 0 c-41 0 -45 2 -45 25 l0 25 120 0 120 0 0 -25z m818 -107
l-3 -133 -32 -3 -33 -3 0 110 0 111 -25 0 c-20 0 -25 5 -25 25 0 24 3 25 60
25 l61 0 -3 -132z m692 107 c0 -24 -3 -25 -55 -25 -52 0 -55 -1 -55 -25 0 -22
4 -25 34 -25 67 0 110 -63 82 -119 -20 -38 -64 -55 -127 -49 -61 6 -86 25 -66
52 11 15 19 16 51 8 62 -17 108 12 74 46 -7 7 -36 12 -66 12 l-55 0 7 38 c3
20 6 54 6 75 l0 37 85 0 c84 0 85 0 85 -25z m390 -110 l0 -135 -30 0 -30 0 0
110 0 110 -30 0 c-25 0 -30 4 -30 25 0 24 3 25 60 25 l60 0 0 -135z m230 110
c0 -24 -3 -25 -55 -25 -52 0 -55 -1 -55 -25 0 -21 5 -25 30 -25 37 0 85 -23
94 -45 22 -59 -16 -114 -86 -122 -48 -6 -118 11 -118 28 0 24 22 50 33 41 37
-28 107 -18 107 17 0 24 -19 31 -79 31 l-48 0 4 53 c8 102 3 97 93 97 79 0 80
0 80 -25z m400 -2 c-1 -16 -22 -75 -48 -133 -45 -100 -49 -105 -80 -108 -17
-2 -32 1 -32 6 0 5 12 36 26 68 15 33 35 78 45 102 l18 42 -39 0 c-32 0 -39
-4 -42 -22 -2 -17 -11 -24 -30 -26 -27 -3 -28 -2 -28 47 l0 51 105 0 105 0 0
-27z m-2455 -68 c0 -27 -3 -30 -30 -30 -21 0 -31 5 -33 18 -6 33 6 49 35 45
24 -3 28 -8 28 -33z m2213 -37 c3 -28 2 -28 -52 -28 -56 0 -56 0 -56 31 l0 30
53 -3 c48 -3 52 -5 55 -30z m-2220 -70 c28 -28 1 -75 -38 -63 -33 11 -21 75
15 75 6 0 16 -5 23 -12z"/>
<path d="M3500 3070 l0 -140 103 0 c159 1 217 38 217 140 0 102 -58 139 -217
140 l-103 0 0 -140z"/>
<path d="M3506 2265 c-58 -22 -102 -60 -133 -113 -24 -41 -28 -58 -28 -127 0
-90 17 -135 69 -187 76 -76 214 -96 313 -45 110 57 160 188 121 318 -15 51
-70 114 -122 141 -53 27 -165 34 -220 13z"/>
<path d="M4150 2126 l0 -156 118 0 c150 1 193 17 223 86 36 80 10 162 -64 201
-23 12 -66 18 -154 21 l-123 4 0 -156z"/>
<path d="M6535 1855 c-50 -49 -20 -125 50 -125 44 0 75 29 75 70 0 38 -39 80
-75 80 -14 0 -37 -11 -50 -25z"/>
<path d="M3798 1129 c-34 -19 -11 -69 31 -69 12 0 41 28 41 40 0 13 -30 40
-43 40 -7 0 -20 -5 -29 -11z"/>
<path d="M4046 1108 c-18 -25 -21 -74 -6 -112 7 -20 16 -26 40 -26 24 0 33 6
40 26 23 60 1 134 -40 134 -10 0 -26 -10 -34 -22z"/>
<path d="M4445 1010 c-9 -28 13 -52 43 -48 33 4 50 31 33 52 -20 24 -68 21
-76 -4z"/>
<path d="M5140 1125 c-19 -23 -4 -45 30 -45 18 0 33 6 36 15 8 19 -13 45 -36
45 -10 0 -23 -7 -30 -15z"/>
<path d="M5129 1014 c-18 -22 1 -48 39 -52 22 -2 34 2 41 17 22 40 -50 71 -80
35z"/>
</g>
</svg>
